/* XPM */
static char * icon_2a_xpm[] = {
"32 32 60 1",
" 	c #000100",
".	c #1C0027",
"+	c #1F0022",
"@	c #020D00",
"#	c #260134",
"$	c #121800",
"%	c #46005E",
"&	c #4C0058",
"*	c #56015D",
"=	c #5A0063",
"-	c #5A0259",
";	c #1A2000",
">	c #590C55",
",	c #252700",
"'	c #83008F",
")	c #910092",
"!	c #850498",
"~	c #9000B7",
"{	c #2C3200",
"]	c #9800B6",
"^	c #A000BB",
"/	c #A700B9",
"(	c #AD01B7",
"_	c #AD00C6",
":	c #B600BB",
"<	c #B400C1",
"[	c #3C3703",
"}	c #901287",
"|	c #BC00B9",
"1	c #BF00C0",
"2	c #BE00C8",
"3	c #403F00",
"4	c #C711C4",
"5	c #B917BA",
"6	c #9B2687",
"7	c #BF19B7",
"8	c #514D01",
"9	c #C31CB4",
"0	c #CF1FBC",
"a	c #BF25B3",
"b	c #C428B1",
"c	c #5E5C00",
"d	c #C431AD",
"e	c #C638AA",
"f	c #6D6801",
"g	c #C93CA7",
"h	c #CA43A4",
"i	c #CD47A0",
"j	c #7A7000",
"k	c #D14B99",
"l	c #887C01",
"m	c #948702",
"n	c #9F9401",
"o	c #AFA300",
"p	c #C0B202",
"q	c #CEBD00",
"r	c #DECB00",
"s	c #EEDC00",
"t	c #F4E404",
"u	c #FBEA00",
"////((::::::::::|557abddddeghhik",
"^////(::::::::||::57abdddeghiiik",
"]^////(:::::::|||:|79bddegghhikk",
"]]'&*'/((::::1-*)||59bddegghhikk",
"]]&nj*//(::::);o@4|57abeeeghiikk",
"]]%tt </(((::*mt34|777bdeghhiiii",
"]]&ot3'////(:=pt{45|77abdghhiiih",
"]]&ctm*///(:2 su@4||779abegghhii",
"]^_@us _///:2;ur.1|77979bdeghhhh",
"]]^.pu;2///(*jtl*|77979abdeggggg",
"~]]&csf&///2 ru,)577770999bbdeee",
"~]]_$up%///*[up.1|4>>* @,{33 6de",
"~~]^.su _/2 qt3-1+ foruuuuttn>bd",
"~~~]%ou{2/*8tq 22 tttusqonmm,>9a",
"~]]]&fsf&! su,):*ftq3 .*****-4|7",
"]]]]_{uo# ptm.<2 ru,)11|||::|:||",
"]]]]^ us mtr '/',ur 22)*-4::|5|:",
"]]]]^.qultu,*//*ltf @{cl3-|||:|:",
"]]]]]*mstuc+2/<.qtqsuuttp*|7|:::",
"]]]]^'8stm.2:(2 utuuuurm@)||||::",
"]]]]/_ rc '/::'3tn;$@ =*):::::::",
"]]]]//'&&2((::*jtc)<22::::::::::",
"]]]/////(((:::*ou;2(::::::::::::",
"]]]/////(:::::*ru 2(:::::1441:::",
"^^^////((::::2 ut.<(:11)*.  -|||",
"^/^//((((::::2 us.***. 3lqus*555",
"^////(((:::::2 utmjloruttutl-557",
"^////((:::::::=muttttusof, -}777",
"////(:::||7755} ,cff3$ ->409aa99",
"///(:::|779977744444400aaabbbbbb",
"///(::|577999aaaa7799aaabbdddddd",
"(/((:::|77999aaaa777abbbdddddddd"};
